<?xml version="1.0" encoding="utf-8"?>
<!-- Generator: Adobe Illustrator 26.0.1, SVG Export Plug-In . SVG Version: 6.00 Build 0)  -->
<svg version="1.1" id="Layer_1" xmlns="http://www.w3.org/2000/svg" xmlns:xlink="http://www.w3.org/1999/xlink" x="0px" y="0px"
	 viewBox="0 0 124 120" style="enable-background:new 0 0 124 120;" xml:space="preserve">
<style type="text/css">
	.st0{fill:none;}
	.st1{fill:#FFCD32;}
	.st2{fill:#FF5F0A;}
	.st3{fill:#00BE5F;}
	.st4{fill:#FFF0AF;}
	.st5{fill:none;stroke:#FFFFFF;stroke-miterlimit:10;}
	.st6{fill:#FFFFFF;}
</style>
<g>
	<path class="st4" d="M62.5,60V5c-6.67,0-13.06,1.2-18.97,3.4L62.31,60L62.5,60z"/>
	<polygon class="st1" points="62.5,60.52 62.5,60.52 62.5,60 62.31,60 	"/>
	<polygon class="st1" points="61.88,60 62.5,60.52 62.31,60 	"/>
	<path class="st1" d="M62.31,60L43.53,8.4c-9.18,3.41-17.19,9.22-23.27,16.67L61.88,60L62.31,60z"/>
	<path class="st2" d="M116.98,60.24c0-0.25,0.02-0.49,0.02-0.74C117,29.4,92.6,5,62.5,5v55L116.98,60.24z"/>
	<path class="st1" d="M62.5,60.52l18.31,50.32c8.96-3.2,16.82-8.67,22.92-15.72L62.5,60.52L62.5,60.52z"/>
	<path class="st1" d="M20.26,25.07C12.6,34.46,8,46.44,8,59.5c0,0.09,0.01,0.18,0.01,0.27L61.88,60L20.26,25.07z"/>
	<path class="st3" d="M62.5,60v0.52l41.23,34.6c8.11-9.38,13.07-21.55,13.25-34.88L62.5,60z"/>
	<path class="st1" d="M62.5,114c6.43,0,12.59-1.12,18.31-3.16L62.5,60.52V114z"/>
	<path class="st1" d="M62.5,60.52L61.88,60L8.01,59.77C8.15,89.74,32.49,114,62.5,114V60.52L62.5,60.52z"/>
</g>
</svg>
