<?xml version="1.0" encoding="utf-8"?>
<!-- Generator: Adobe Illustrator 26.0.1, SVG Export Plug-In . SVG Version: 6.00 Build 0)  -->
<svg version="1.1" id="Layer_1" xmlns="http://www.w3.org/2000/svg" xmlns:xlink="http://www.w3.org/1999/xlink" x="0px" y="0px"
	 viewBox="0 0 120 124" style="enable-background:new 0 0 120 124;" xml:space="preserve">
<style type="text/css">
	.st0{fill:none;}
	.st1{fill:#FFCD32;}
	.st2{fill:#9BE5BE;}
	.st3{fill:#00BE5F;}
	.st4{fill:#FFF0AF;}
	.st5{fill:#FF5F0A;}
	.st6{fill:none;stroke:#FFFFFF;stroke-miterlimit:10;}
	.st7{fill:#FFFFFF;}
</style>
<g>
	<path class="st0" d="M77.89,89.54C86.37,84.02,92.15,74.69,92.79,64"/>
	<path class="st0" d="M92.79,64c0.04-0.66,0.07-1.33,0.07-2c0-18.12-14.74-32.86-32.86-32.86"/>
	<path class="st0" d="M60,94.86c6.59,0,12.74-1.96,17.89-5.32"/>
	<path class="st0" d="M27.21,64C28.24,81.19,42.55,94.86,60,94.86"/>
	<path class="st0" d="M60,29.14c-7.42,0-14.26,2.47-19.77,6.63"/>
	<path class="st0" d="M40.23,35.77c-7.95,6-13.09,15.53-13.09,26.23c0,0.67,0.03,1.34,0.07,2"/>
	<path class="st1" d="M27.14,62c0-10.7,5.15-20.23,13.09-26.23L28.81,19.46C15.74,29.06,7.25,44.54,7.25,62c0,0.67,0.03,1.34,0.05,2
		h19.91C27.17,63.34,27.14,62.67,27.14,62z"/>
	<path class="st1" d="M60,94.86v19.89c10.85,0,20.93-3.28,29.31-8.89L77.89,89.54C72.74,92.9,66.59,94.86,60,94.86z"/>
	<path class="st2" d="M112.7,64H92.79c-0.65,10.69-6.43,20.02-14.91,25.54l11.42,16.31C102.92,96.74,112.05,81.46,112.7,64z"/>
	<path class="st3" d="M92.86,62c0,0.67-0.03,1.34-0.07,2h19.91c0.02-0.66,0.05-1.33,0.05-2c0-29.13-23.62-52.75-52.75-52.75v19.89
		C78.12,29.14,92.86,43.88,92.86,62z"/>
	<path class="st4" d="M60,29.14V9.25c-11.67,0-22.45,3.8-31.19,10.21l11.42,16.31C45.74,31.61,52.58,29.14,60,29.14z"/>
	<path class="st1" d="M27.21,64H7.3c1.05,28.2,24.24,50.75,52.7,50.75V94.86C42.55,94.86,28.24,81.19,27.21,64z"/>
</g>
</svg>
