<?xml version="1.0" encoding="utf-8"?>
<!-- Generator: Adobe Illustrator 26.0.1, SVG Export Plug-In . SVG Version: 6.00 Build 0)  -->
<svg version="1.1" id="Layer_1" xmlns="http://www.w3.org/2000/svg" xmlns:xlink="http://www.w3.org/1999/xlink" x="0px" y="0px"
	 viewBox="0 0 302 123" style="enable-background:new 0 0 302 123;" xml:space="preserve">
<style type="text/css">
	.st0{fill:none;}
	.st1{fill:#FFCD32;}
	.st2{fill:#9BE5BE;}
	.st3{fill:#00BE5F;}
	.st4{fill:#FFF0AF;}
	.st5{fill:#FF5F0A;}
	.st6{fill:none;stroke:#FFFFFF;stroke-miterlimit:10;}
	.st7{fill:#FFFFFF;}
</style>
<g>
	<g>
		<path class="st5" d="M42.5,56C52.15,56,60,63.85,60,73.5S52.15,91,42.5,91S25,83.15,25,73.5S32.85,56,42.5,56 M42.5,38
			C22.89,38,7,53.89,7,73.5S22.89,109,42.5,109S78,93.11,78,73.5S62.11,38,42.5,38L42.5,38z"/>
	</g>
	<g>
		<rect x="63" y="38" class="st3" width="19" height="71"/>
	</g>
	<rect x="96" y="10" class="st4" width="19" height="99"/>
	<rect x="131" y="39" class="st5" width="18" height="71"/>
	<rect x="186" y="74" class="st1" width="19" height="35"/>
	<rect x="241" y="75" class="st1" width="18" height="35"/>
	<rect x="274" y="39" class="st4" width="19" height="70"/>
	<path class="st3" d="M168,58c9.93,0,18,8.07,18,18h19c0-20.43-16.57-37-37-37l0,0c-20.43,0-37,16.57-37,37h19
		C150,66.07,158.07,58,168,58"/>
	<path class="st5" d="M222.53,60c9.93,0,18,8.07,18,18h19c0-20.43-16.57-37-37-37l0,0c-20.43,0-37,16.57-37,37h19
		C204.53,68.07,212.61,60,222.53,60"/>
	<circle class="st5" cx="283" cy="19" r="13"/>
	<rect x="96" y="75" class="st3" width="19" height="34"/>
	<rect x="96" y="39" class="st5" width="19" height="36"/>
	<rect x="274" y="60" class="st3" width="19" height="24"/>
	<rect x="274" y="38" class="st1" width="19" height="22"/>
</g>
</svg>
